<svg width="30" height="30" viewBox="0 0 30 30" fill="none" xmlns="http://www.w3.org/2000/svg">
<path d="M24.8208 2.49994H5.17796C4.46756 2.49994 3.78625 2.78214 3.28393 3.28447C2.7816 3.7868 2.49939 4.46811 2.49939 5.17851L2.49939 24.8214C2.49939 25.5318 2.7816 26.2131 3.28393 26.7154C3.78625 27.2177 4.46756 27.4999 5.17796 27.4999H12.837V19.0005H9.32138V14.9999H12.837V11.9508C12.837 8.48264 14.9017 6.5669 18.0641 6.5669C19.5786 6.5669 21.1623 6.83699 21.1623 6.83699V10.241H19.4174C17.6981 10.241 17.1618 11.308 17.1618 12.4023V14.9999H20.9999L20.3861 19.0005H17.1618V27.4999H24.8208C25.5312 27.4999 26.2125 27.2177 26.7149 26.7154C27.2172 26.2131 27.4994 25.5318 27.4994 24.8214V5.17851C27.4994 4.46811 27.2172 3.7868 26.7149 3.28447C26.2125 2.78214 25.5312 2.49994 24.8208 2.49994Z" fill="#918E9B"/>
</svg>
