<svg width="30" height="30" viewBox="0 0 30 30" fill="none" xmlns="http://www.w3.org/2000/svg">
<path d="M24.8208 2.49994H5.17796C3.69917 2.49994 2.49939 3.69972 2.49939 5.17851V24.8214C2.49939 26.3002 3.69917 27.4999 5.17796 27.4999H24.8208C26.2996 27.4999 27.4994 26.3002 27.4994 24.8214V5.17851C27.4994 3.69972 26.2996 2.49994 24.8208 2.49994ZM17.9737 23.9118C17.505 23.9955 17.332 23.7053 17.332 23.4653C17.332 23.164 17.3431 21.6238 17.3431 20.3794C17.3431 19.5089 17.053 18.9564 16.7126 18.6662C18.7773 18.4374 20.9536 18.1528 20.9536 14.587C20.9536 13.5714 20.5909 13.0636 19.9994 12.4107C20.0943 12.1707 20.4123 11.183 19.9045 9.89949C19.1289 9.65954 17.3543 10.8984 17.3543 10.8984C16.6177 10.6919 15.8197 10.5859 15.0329 10.5859C14.246 10.5859 13.4481 10.6919 12.7114 10.8984C12.7114 10.8984 10.9369 9.65954 10.1612 9.89949C9.65341 11.1774 9.96591 12.1651 10.0664 12.4107C9.47484 13.0636 9.19582 13.5714 9.19582 14.587C9.19582 18.1361 11.2773 18.4374 13.342 18.6662C13.0742 18.9062 12.8342 19.3191 12.7505 19.9107C12.2204 20.1506 10.8643 20.5636 10.0552 19.135C9.54738 18.2533 8.6322 18.1807 8.6322 18.1807C7.72818 18.1696 8.57082 18.7499 8.57082 18.7499C9.1735 19.029 9.5976 20.1004 9.5976 20.1004C10.1389 21.7578 12.7282 21.1997 12.7282 21.1997C12.7282 21.9754 12.7393 23.2365 12.7393 23.4653C12.7393 23.7053 12.5719 23.9955 12.0976 23.9118C8.41457 22.6785 5.83644 19.174 5.83644 15.0781C5.83644 9.9553 9.75385 6.06579 14.8766 6.06579C19.9994 6.06579 24.1512 9.9553 24.1512 15.0781C24.1568 19.174 21.6568 22.6841 17.9737 23.9118ZM12.4994 20.5022C12.3934 20.5245 12.2929 20.4799 12.2818 20.4073C12.2706 20.3236 12.3431 20.2511 12.4492 20.2287C12.5552 20.2176 12.6556 20.2622 12.6668 20.3348C12.6835 20.4073 12.611 20.4799 12.4994 20.5022ZM11.9693 20.452C11.9693 20.5245 11.8856 20.5859 11.7739 20.5859C11.6512 20.597 11.5675 20.5357 11.5675 20.452C11.5675 20.3794 11.6512 20.318 11.7628 20.318C11.8688 20.3069 11.9693 20.3682 11.9693 20.452ZM11.2047 20.3906C11.1824 20.4631 11.0708 20.4966 10.976 20.4631C10.8699 20.4408 10.7974 20.3571 10.8197 20.2845C10.842 20.212 10.9536 20.1785 11.0485 20.2008C11.1601 20.2343 11.2326 20.318 11.2047 20.3906ZM10.5184 20.0892C10.4681 20.1506 10.3621 20.1395 10.2784 20.0557C10.1947 19.9832 10.1724 19.8772 10.2282 19.8269C10.2784 19.7656 10.3844 19.7767 10.4681 19.8604C10.5407 19.933 10.5686 20.0446 10.5184 20.0892ZM10.0106 19.5814C9.96033 19.6149 9.86546 19.5814 9.80408 19.4977C9.74269 19.414 9.74269 19.3191 9.80408 19.2801C9.86546 19.2299 9.96033 19.2689 10.0106 19.3526C10.0719 19.4363 10.0719 19.5368 10.0106 19.5814ZM9.64783 19.0401C9.5976 19.0903 9.5139 19.0624 9.45252 19.0066C9.39113 18.9341 9.37997 18.8504 9.43019 18.8113C9.48042 18.7611 9.56412 18.789 9.62551 18.8448C9.68689 18.9174 9.69805 19.0011 9.64783 19.0401ZM9.27394 18.6272C9.25162 18.6774 9.17908 18.6886 9.11769 18.6495C9.04515 18.616 9.01167 18.5546 9.03399 18.5044C9.05631 18.4709 9.11769 18.4542 9.19024 18.4821C9.26278 18.5211 9.29627 18.5825 9.27394 18.6272Z" fill="#918E9B"/>
</svg>
