<svg width="30" height="30" viewBox="0 0 30 30" fill="none" xmlns="http://www.w3.org/2000/svg">
<path d="M14.9994 12.0234C14.4107 12.0236 13.8354 12.1984 13.346 12.5256C12.8567 12.8528 12.4753 13.3177 12.2502 13.8616C12.0251 14.4055 11.9663 15.004 12.0813 15.5813C12.1963 16.1586 12.4798 16.6889 12.8962 17.1051C13.3125 17.5213 13.8429 17.8046 14.4202 17.9194C14.9976 18.0342 15.596 17.9751 16.1398 17.7498C16.6837 17.5245 17.1485 17.143 17.4755 16.6535C17.8025 16.164 17.9771 15.5886 17.9771 14.9999C17.9765 14.2105 17.6625 13.4536 17.1042 12.8955C16.5459 12.3373 15.7888 12.0237 14.9994 12.0234ZM21.9587 9.73543C21.8071 9.35141 21.5783 9.00263 21.2864 8.71071C20.9945 8.4188 20.6457 8.18997 20.2617 8.03844C19.0898 7.57583 16.2996 7.67963 14.9994 7.67963C13.6992 7.67963 10.9118 7.57193 9.73656 8.03844C9.35254 8.18997 9.00375 8.4188 8.71184 8.71071C8.41992 9.00263 8.1911 9.35141 8.03957 9.73543C7.57751 10.9073 7.68075 13.7003 7.68075 14.9994C7.68075 16.2985 7.57752 19.0881 8.0418 20.2639C8.19333 20.6479 8.42215 20.9967 8.71407 21.2886C9.00599 21.5805 9.35477 21.8093 9.73879 21.9609C10.9107 22.4235 13.7008 22.3197 15.0016 22.3197C16.3024 22.3197 19.0887 22.4274 20.2639 21.9609C20.6479 21.8093 20.9967 21.5805 21.2886 21.2886C21.5805 20.9967 21.8094 20.6479 21.9609 20.2639C22.4268 19.092 22.3197 16.299 22.3197 14.9999C22.3197 13.7008 22.4268 10.9118 21.9609 9.73599L21.9587 9.73543ZM14.9994 19.5758C14.0944 19.5758 13.2097 19.3075 12.4572 18.8047C11.7047 18.3019 11.1182 17.5872 10.7718 16.7511C10.4255 15.9149 10.3349 14.9949 10.5114 14.1072C10.688 13.2196 11.1238 12.4042 11.7637 11.7643C12.4037 11.1243 13.219 10.6885 14.1067 10.512C14.9943 10.3354 15.9144 10.426 16.7505 10.7724C17.5866 11.1187 18.3013 11.7052 18.8041 12.4577C19.3069 13.2102 19.5753 14.0949 19.5753 14.9999C19.576 15.6011 19.4582 16.1964 19.2285 16.7519C18.9988 17.3074 18.6617 17.8122 18.2367 18.2372C17.8116 18.6623 17.3069 18.9993 16.7514 19.229C16.1959 19.4587 15.6005 19.5766 14.9994 19.5758ZM19.7639 11.3002C19.5526 11.3003 19.3461 11.2377 19.1704 11.1204C18.9946 11.0031 18.8577 10.8364 18.7767 10.6412C18.6958 10.446 18.6746 10.2313 18.7157 10.0241C18.7569 9.81683 18.8585 9.62646 19.0079 9.47703C19.1572 9.3276 19.3476 9.22582 19.5548 9.18457C19.762 9.14331 19.9768 9.16443 20.1719 9.24525C20.3671 9.32608 20.534 9.46297 20.6514 9.63863C20.7688 9.81429 20.8314 10.0208 20.8314 10.2321C20.832 10.3724 20.8049 10.5114 20.7516 10.6412C20.6984 10.771 20.62 10.889 20.521 10.9884C20.422 11.0879 20.3044 11.1668 20.1749 11.2207C20.0453 11.2746 19.9064 11.3023 19.7661 11.3024L19.7639 11.3002ZM24.8208 2.49994H5.17796C4.46756 2.49994 3.78625 2.78214 3.28393 3.28447C2.7816 3.7868 2.49939 4.46811 2.49939 5.17851L2.49939 24.8214C2.49939 25.5318 2.7816 26.2131 3.28393 26.7154C3.78625 27.2177 4.46756 27.4999 5.17796 27.4999H24.8208C25.5312 27.4999 26.2125 27.2177 26.7149 26.7154C27.2172 26.2131 27.4994 25.5318 27.4994 24.8214V5.17851C27.4994 4.46811 27.2172 3.7868 26.7149 3.28447C26.2125 2.78214 25.5312 2.49994 24.8208 2.49994ZM23.8655 18.683C23.7935 20.1132 23.467 21.3805 22.4229 22.4218C21.3789 23.4631 20.1127 23.7963 18.6841 23.8643C17.2103 23.9475 12.7918 23.9475 11.318 23.8643C9.88778 23.7924 8.62495 23.4653 7.57919 22.4218C6.53343 21.3783 6.20475 20.1104 6.13667 18.683C6.05352 17.2086 6.05352 12.7896 6.13667 11.3169C6.20865 9.88666 6.5312 8.61936 7.57919 7.57806C8.62718 6.53677 9.89336 6.20753 11.318 6.13945C12.7918 6.0563 17.2103 6.0563 18.6841 6.13945C20.1143 6.21143 21.3811 6.53844 22.4229 7.58197C23.4648 8.6255 23.7974 9.89335 23.8655 11.3236C23.9486 12.7923 23.9486 17.2075 23.8655 18.683Z" fill="#918E9B"/>
</svg>
