<svg width="30" height="30" viewBox="0 0 30 30" fill="none" xmlns="http://www.w3.org/2000/svg">
<path d="M24.8208 2.49994H5.17796C3.69917 2.49994 2.49939 3.69972 2.49939 5.17851V24.8214C2.49939 26.3002 3.69917 27.4999 5.17796 27.4999H24.8208C26.2996 27.4999 27.4994 26.3002 27.4994 24.8214V5.17851C27.4994 3.69972 26.2996 2.49994 24.8208 2.49994ZM22.092 11.3615C22.1032 11.5178 22.1032 11.6796 22.1032 11.8359C22.1032 16.674 18.4201 22.2488 11.6902 22.2488C9.61435 22.2488 7.68912 21.6461 6.07082 20.6082C6.36658 20.6417 6.65118 20.6528 6.95252 20.6528C8.66568 20.6528 10.2393 20.0725 11.4949 19.0903C9.88778 19.0569 8.53734 18.0022 8.07417 16.5513C8.63778 16.635 9.1456 16.635 9.72595 16.4843C8.05185 16.1439 6.79627 14.6707 6.79627 12.8906V12.8459C7.28176 13.1194 7.85095 13.2868 8.44805 13.3091C7.94606 12.9752 7.53454 12.5222 7.25021 11.9905C6.96588 11.4589 6.8176 10.8651 6.81859 10.2622C6.81859 9.58141 6.99716 8.95641 7.31524 8.41512C9.11769 10.6361 11.8242 12.087 14.8599 12.2432C14.3409 9.75998 16.1992 7.74547 18.4313 7.74547C19.486 7.74547 20.4347 8.18632 21.1043 8.90061C21.9302 8.74436 22.7226 8.43744 23.4257 8.01891C23.1523 8.86713 22.5775 9.58141 21.8186 10.0334C22.5552 9.9553 23.2695 9.74882 23.928 9.46423C23.4313 10.1953 22.8063 10.8426 22.092 11.3615Z" fill="#918E9B"/>
</svg>
